<?xml version="1.0" encoding="utf-8"?>
<!-- Generator: Adobe Illustrator 17.0.1, SVG Export Plug-In . SVG Version: 6.00 Build 0)  -->
<!DOCTYPE svg PUBLIC "-//W3C//DTD SVG 1.1//EN" "http://www.w3.org/Graphics/SVG/1.1/DTD/svg11.dtd">
<svg version="1.1" id="Capa_1" xmlns="http://www.w3.org/2000/svg" xmlns:xlink="http://www.w3.org/1999/xlink" x="0px" y="0px"
	 width="376px" height="277.548px" viewBox="0 0 376 277.548" enable-background="new 0 0 376 277.548" xml:space="preserve">
<g>
	<path fill="#FDFDFD" d="M292.399,109.887c-0.665-1.595-1.324-3.193-1.949-4.805c-0.889-1.39-1.786-2.774-2.695-4.148
		c0.796,2.439,1.584,4.88,2.324,7.333C290.851,108.807,291.626,109.346,292.399,109.887z"/>
	<path fill="#FDFDFD" d="M184.201,73.947c0.209-0.852,0.642-1.648,1.275-2.303c-1.364-0.603-2.71-1.245-4.034-1.93
		C182.333,71.056,183.249,72.489,184.201,73.947z"/>
	<path fill="#FDFDFD" d="M356.976,150.913c-10.255-4.698-21.18-8.177-31.858-12.16c-0.432,2.604-0.823,5.215-1.119,7.842
		c-0.113,1.007-0.478,1.945-1.012,2.738c-0.142,1.217-0.252,2.438-0.303,3.665c-0.463,11.221,1.512,22.38,0.815,33.597
		c-0.176,2.836-2.147,4.846-5,5c-3.16,0.171-6.32,0.278-9.48,0.355c-0.801,0.847-1.969,1.342-3.52,1.145
		c-2.559-0.324-5.135-0.676-7.716-1.061c-11.103-0.143-22.188-0.93-33.211-2.437c-0.025-0.001-0.049-0.001-0.074-0.002
		c0-0.003,0.001-0.005,0.001-0.008c-0.443-0.061-0.887-0.108-1.33-0.171c-3.736-0.532-4.356-4.727-2.751-7.46
		c-0.184-0.084-0.371-0.162-0.555-0.247c-5.234-2.439-10.722-5.691-13.971-10.587c-8.507,2.676-18.523,1.53-27.997,1.104
		c-1.246,1.168-3.045,1.751-4.727,1.19l-4.5-1.5c-1.853-0.618-3.213-2.113-3.567-3.914c-2.06-0.061-4.117-0.086-6.153,0.146
		c0.296-1.636,1.439-1.985,2.902-1.978c1.085,0.005,2.169,0.009,3.254,0.016c0.026-0.14,0.032-0.278,0.071-0.42
		c0.694-2.522,3.564-4.354,6.151-3.492l0.354,0.118c0.536-0.193,1.139-0.303,1.817-0.296c8.902,0.086,21.155,3.037,29.986-0.532
		c0.927-6.232,6.399-11.456,13.343-8.789c2.929,1.125,4.795,4.371,2.988,7.345c-1.52,2.502-3.244,4.519-5.125,6.157
		c1.421,1.568,2.995,2.871,4.823,3.963c4.937,2.947,10.313,4.969,15.813,6.598c4.081,1.209,8.228,2.263,12.406,3.184
		c4.981,0.285,9.927,0.868,14.799,2.052c2.692-0.017,5.381-0.078,8.069-0.162c0.039-0.191,0.076-0.375,0.118-0.581
		c0.205,0.15,0.361,0.344,0.488,0.562c0.806-0.026,1.613-0.044,2.419-0.077c-0.024-9.614-1.604-19.207-0.944-28.816
		c0.101-1.477,0.265-2.942,0.474-4.398c-2.008-1.58-3.813-3.375-5.456-5.333c-1.893,1.385-4.73,1.706-6.739-0.137
		c-3.998-3.668-8.316-6.877-12.754-9.928c-1.191,1.75-3.399,2.886-5.539,2.214c-9.938-3.123-19.513-7.478-28.695-12.377
		c-6.492-3.463-13.287-6.824-18.014-12.418c-2.064-0.8-4.117-1.628-6.15-2.504c-1.44,1.717-3.933,2.608-6.335,1.295
		c-6.145-3.359-11.938-7.261-17.425-11.561c-0.753,1.205-2.099,1.978-4.052,1.744c-12.621-1.516-19.171-10.845-26.029-20.548
		c-1.418,0.661-3.076,0.757-4.495-0.134c-5.357-3.367-9.942-7.641-14.081-12.353c-0.517,1.49-1.201,3.009-2.078,4.559
		c-1.728,3.056-5.396,2.95-7.853,1.012c-1.268-1-3.074-1.441-4.488-2.218c-0.426-0.234-0.785-0.503-1.093-0.793
		c-0.542-0.001-1.07,0.012-1.589,0.076c1.855,5.296,5.373,9.716,7.762,14.731c0.314,0.388,0.629,0.776,0.943,1.164l0.005,0.008
		c4.11,5.598,9.968,8.763,16.135,11.44c1.037,0.45,2.207,0.529,2.839,1.637c7.188,0.549,13.615,3.722,20.211,6.162
		c2.98,1.102,6.371,1.361,8.931,3.556c4.198,1.178,8.332,2.508,11.932,5.089c6.859,1.737,13.332,4.413,19.428,8.004
		c1.569-0.015,3.146-0.046,3.668,1.93c0.827-0.113,0.978-1.516,2.411-0.751c8.096,4.319,16.834,7.078,25.453,10.116
		c0.433,0.153,0.764,0.599,1.142,0.908c6.038,0.691,11.487,3.155,16.933,5.626c3.382,1.295,7.113,1.86,10.482,4.787
		c-6.553,2.005-12.564,0.823-18.518,0.783c-0.753,1.636-1.699,2.131-3.003,0.508c-18.917-1.856-37.897,0.309-56.824-0.901
		c-0.765-0.049-1.781,0.311-2.064-0.767c-0.343-1.306,1.55-1.014,1.651-2.076c-6.577-0.665-13.263-0.276-19.729-2.029
		c-0.827,0.356-1.654,0.712-2.481,1.068c-0.939-0.061-1.878-0.123-2.817-0.184c-2.809-1.486-5.881-0.641-8.818-0.996l0.091,0.257
		c-0.235,0.852,0.316,2.37-1.112,2.278c-1.309-0.085-0.787-1.534-0.934-2.433c-2.116-1.445-4.647-1.192-6.991-1.704
		c-0.09,0.6-0.104,1.694-0.282,1.721c-1.191,0.183-1.075-1.134-1.669-1.693c-1.043-0.014-2.086-0.028-3.129-0.042L161,137.447
		l-0.329-0.249c-0.951-0.148-2.002-0.018-2.668-0.959c-0.079-0.361-0.157-0.721-0.236-1.082c-4.479,0.436-6.025-1.939-5.778-6.031
		c-3.144-4.622-5.547-9.608-7.309-14.908c-1.48-1.499-1.873,0.306-2.672,0.879c-2.391,5.953-7.875,6.263-13.004,6.862
		c-5.212,0.608-10.407-1.618-15.677-0.423c-0.177,1.445-0.353,2.89-0.678,5.547c-0.695-2.709-1.124-4.382-1.553-6.056
		c-1.408-7.692-0.847-15.474-1.088-23.221c-0.166-5.321-2.798-9.706-5.804-13.89c-3.155,0.626-3.11-2.788-4.903-3.883
		c-0.875-0.106-1.87,0.676-2.621-0.354l2.07-1.127c-0.152-0.307-0.202-0.629-0.148-0.968c-2.649-2.442-5.615-1.539-8.565-0.811
		c-1.87-0.359-3.53,2.247-5.506,0.39l-1.228,0.704c-0.718,0.554-1.372,1.303-2.437,0.807c-2.405,0.466-4.81,0.932-7.548,1.462
		c0.421-3.679,3.059-4.442,5.583-5.326c0.31-0.78,0.935-0.842,1.641-0.719l15.103-11.013c2.859-5.758,7.901-9.214,14.785-10.78
		l0.041-0.03c0.014,0.003,0.028,0.006,0.042,0.009c0.008-0.002,0.016-0.004,0.024-0.006l-0.012,0.008
		c4.633,1.091,9.526,0.16,14.092,1.869c3.183,1.191,6.384,2.282,8.848,5.771c-7.626-0.127-14.085,1.868-20.482,4.139h27.891
		c1.018-2.585,3.986-4.519,7.147-2.781c0.087,0.048,0.173,0.093,0.26,0.14c0.423-2.979-0.245-5.933-1.503-8.758
		c-0.704-1.014-1.404-2.028-2.098-3.04c-0.408-0.595-0.625-1.231-0.694-1.872c-1.711-2.497-3.7-4.82-5.558-6.877
		c-6.21-6.878-13.587-12.995-18.748-20.751c-0.965-1.45-0.824-3.294-0.039-4.812c-0.292-2.379,1.085-5.179,3.528-6.033
		c1.317-0.461,2.439-0.609,3.829-0.679c1.718-0.086,2.971,0.565,3.771,1.566c4.44,0.863,8.799,1.941,13.058,3.613
		c4.171,1.637,5.326,8.533,0,9.643c-1.482,0.309-3.111,0.547-4.804,0.712c1.369,1.692,2.733,3.389,4.115,5.071
		c7.94,8.387,17.907,14.683,27.127,21.632c10.116,7.624,22.519,15.725,35.701,15.41c5.33-0.127,10.624-0.843,15.944-1.147
		c4.288-0.245,9.551-0.783,13.667,0.789c6.117,2.335,7.797,7.443,8.885,12.974c1.368,0.499,2.736,1,4.105,1.498
		c0.051-0.097,0.101-0.194,0.156-0.285c-0.014-0.049-0.034-0.096-0.048-0.145c-0.978-3.45,2.499-7.481,6.151-6.151
		c7.412,2.7,13.089,8.951,17.488,15.298c1.48,2.135,0.8,4.409-0.765,5.877c0.16,0.25,0.322,0.501,0.481,0.75
		c0.235,0.369,0.472,0.743,0.709,1.119c0.06,0.053,0.121,0.106,0.182,0.158c1.161,0.094,2.32,0.225,3.45,0.418
		c-1.412-4.704-2.688-9.445-3.5-14.322c-1.475,0.068-2.967,0.191-4.19-1.24c1.255,1.28,2.55-1.291,3.812-1.334
		c-0.514-4.627,5.706-5.97,8.54-3.438c3.344,2.987,6.243,6.33,8.914,9.856c1.918-0.346,4.069,0.262,5.368,2.156
		c6.141,8.955,12.346,18.2,15.504,28.694c0.378,1.257,0.145,2.485-0.442,3.531c2.379,1.24,4.791,2.41,7.236,3.508
		c0.509-2.514,1.033-5.026,1.563-7.539c1.16-5.498,10.215-4.301,9.821,1.329c-0.194,2.778-0.631,5.521-1.182,8.247
		c11.198,3.588,21.699,9.112,32.19,14.419c-0.003-45.722,0.024-91.444,0.087-137.166C360.101,0.67,359.423-0.003,356,0
		C242,0.115,128,0.115,14,0c-3.424-0.003-4.1,0.672-4.096,4.096c0.121,87.666,0.121,175.333,0,263
		c-0.005,3.425,0.672,4.105,4.096,4.097c57-0.136,114-0.097,171-0.097c57,0,114-0.039,171,0.097c3.426,0.008,4.1-0.675,4.095-4.098
		c-0.053-38.579-0.074-77.159-0.08-115.738C359.067,151.509,358.033,151.397,356.976,150.913z M196.932,142.331
		c0.114,0.044,0.228,0.087,0.342,0.131c-0.011,0.102,0.016,0.254-0.04,0.296c-0.089,0.067-0.233,0.06-0.354,0.085
		C196.897,142.671,196.915,142.501,196.932,142.331z M192.596,142.688c0.249,0.177,0.497,0.355,0.782,0.559
		c-0.2,0.184-0.364,0.382-0.573,0.499c-0.063,0.036-0.363-0.152-0.362-0.234C192.448,143.237,192.539,142.963,192.596,142.688z
		 M182.891,140.818c0.226,0.436,0.58,0.82,0.6,1.22c0.045,0.876-0.664,1.007-1.281,0.818c-0.321-0.098-0.513-0.617-0.763-0.946
		C181.787,141.653,182.127,141.396,182.891,140.818z M171.183,147.337c0.003,0.148,0.005,0.297,0.008,0.445H155.56
		c-0.003-0.148-0.005-0.297-0.008-0.445H171.183z M166.262,165.709c-0.106,0.086-0.271,0.099-0.413,0.141
		c-0.034-0.125-0.131-0.326-0.091-0.359c0.105-0.086,0.271-0.098,0.413-0.14C166.205,165.476,166.302,165.677,166.262,165.709z
		 M125.992,147.494c1.707-1.114,3.914-1.456,6.134-1.411c6.245,0.126,12.494,0.058,18.742,0.067c0.907,0.02,1.925-0.28,2.555,0.626
		c0.118,0.17-0.2,0.902-0.481,1.039c-0.838,0.409-1.472-0.064-1.964-0.751c-5.409,1.927-11.018,0.624-16.518,1.051
		c-2.515,0.195-5.216-1.003-7.53,0.893c0.271,0.365,0.541,0.73,0.812,1.095c-1.218,0.345-0.491-0.754-0.803-1.082
		C126.175,148.737,124.332,148.577,125.992,147.494z M121.922,144.149c-0.127-0.099-0.254-0.197-0.381-0.296l0.509,0.169
		c1.153,0.764,2.405,1.681,1.563,3.186c-0.78,1.393-2.302,0.9-3.696,0.673C120.354,146.466,122.296,145.903,121.922,144.149z
		 M116.247,134.446c0.064-0.033,0.363,0.175,0.356,0.255c-0.024,0.265-0.138,0.523-0.224,0.803
		c-0.243-0.201-0.477-0.394-0.711-0.587C115.858,134.753,116.031,134.559,116.247,134.446z M34.502,102.623
		c-2.574-0.071-5.19-0.626-7.628-1.447c-5.394-1.818-8.276-6.32-9.196-11.751c-0.558-3.293,1.347-6.149,4.821-6.329
		c9.438-0.491,18.072,2.844,25.781,8.118c5.899,4.035,13.823,8.489,18.254,14.222c1.67,2.161,2.747,4.327,3.343,6.484
		c5.297,4.922,10.339,10.117,15.142,15.701c10.437,12.134,20.93,23.761,33.368,33.914c6.453,5.268,13.109,10.316,19.334,15.858
		c1.912,1.702,3.896,3.323,5.729,5.049c0.844-1.107,1.84-2.112,2.975-2.996c0.404-2.736,2.636-5.011,5.903-3.671
		c1.467,0.602,2.988,1.026,4.5,1.5c6.131,1.923,3.512,11.579-2.658,9.643c-0.278-0.087-0.556-0.172-0.834-0.257
		c-2.212,1.117-3.541,3.662-3.015,6.107c1.349,6.27-7.91,8.906-9.643,2.658c-0.951-3.431-3.84-5.659-6.463-7.876
		c-3.003-2.537-5.916-5.175-8.955-7.672c-6.471-5.318-13.157-10.391-19.459-15.913c-2.364-2.071-4.625-4.223-6.842-6.409
		c-2.158,4.813-10.486,2.09-9.282-3.789c0.659-3.216,0.327-4.192-2.88-4.685c-0.808-0.124-1.623-0.196-2.441-0.248
		c-0.247,0.289-0.515,0.597-0.821,0.948c-0.101-0.37-0.213-0.694-0.307-0.999c-1.696-0.063-3.399-0.059-5.084-0.135
		c-5.606-0.252-11.171-0.895-16.717-1.697c-0.973,0.393-1.645,0.169-2.186-0.32c-3.53-0.536-7.052-1.125-10.572-1.713
		c-3.832-0.64-4.646-5.901-2.206-8.357c4.25-4.278,8.681-8.748,11.835-13.924c1.428-2.344,2.151-4.357,2.149-6.207
		c-1.235-1.073-2.492-2.118-3.79-3.108c-4.867-3.716-9.397-8.297-14.862-11.141C38.613,100.522,37.734,102.713,34.502,102.623z
		 M93.03,182.023c0.257,0.153,0.421,0.185,0.435,0.193c0.585-0.028,0.936-0.17,1.706-0.442c6.098-2.151,8.697,7.513,2.658,9.643
		c-5.512,1.944-11.176-0.117-14.053-5.243c-2.227-3.968-3.033-8.387-4.098-12.749c-1.53-6.264,8.113-8.921,9.643-2.658
		c0.692,2.833,1.227,6.504,2.31,8.834c0.317,0.681,0.641,1.374,1.07,1.994C92.284,180.991,93.838,182.505,93.03,182.023z
		 M44.001,225.848c1.615-1.498,3.262-0.22,4.808-0.478C47.369,226.337,45.81,226.132,44.001,225.848z M122.671,254.917
		c-14.784-2.646-29.789,1.838-44.671,0.179c-6.335-0.706-6.404-10.714,0-10c6.737,0.751,13.455,0.382,20.168-0.071
		c0-0.051,0.001-0.101,0.001-0.152c0.05,0.048,0.091,0.095,0.139,0.143c9.006-0.609,18.002-1.355,27.021,0.259
		C131.67,246.409,128.975,256.045,122.671,254.917z M189.054,237.189c-1.832,3.909-3.31,7.97-4.092,12.194
		c-0.557,3.009-2.585,4.769-4.905,5.558c-4.527,1.539-9.296,2.367-13.968,3.474c-0.953,0.226-2.24,0.645-2.694-0.38
		c-0.643-1.449,1.729-1.229,1.802-2.5c-2.072-1.521-4.39,1.032-6.925-0.551c1.143-1.292,2.217-2.506,3.291-3.72h-30.849
		c10.532-0.907,21.059-1.756,31.586-0.671c3.553-0.218,7.106-0.437,10.659-0.655c3.204-2.763,3.764-5.162-0.941-6.837
		c-5.232,0.141-10.149-1.297-15.015-2.992c-24.365-1.958-49.167-0.531-72.814-8.143c-9.49-3.055-18.82-6.223-28.823-6.883
		c-1.046-0.069-2.209-0.268-2.073-1.552c0.166-1.566,1.61-1.382,2.749-1.424c9.814-0.359,19.581,0.077,29.191,2.22
		c12.63,2.816,25.377,4.276,38.322,4.902c16.178,0.781,32.31,2.512,48.466,3.793c1.652,0.131,3.326-0.009,4.99-0.023
		c4.662-5.532,9.677-11.001,13.609-16.854c4.73-7.042,7.917-15.708,3.559-24.751c-2.733-5.672-5.042-11.581-8.18-17.015
		c-1.881-3.258-0.611-4.298,1.96-5.399c0.016-0.241,0.019-0.482,0.01-0.724c-0.826-0.559-0.978-1.398-0.959-2.307
		c-0.016-0.547-0.031-1.093-0.047-1.64c-1.206-4.03,1.677-5.484,4.446-6.91c16.333-8.412,33.778-11.202,51.969-10.261
		c2.788,0.144,5.594-0.095,8.387-0.002c1.532,0.051,3.384-0.682,4.392,1.159c-18.906,5.912-38.614,8.09-57.726,12.942
		c-2.091,0.531-6.026,0.137-4.393,4.59c2.01-0.003,2.827,2.492,4.907,2.343c0-0.002,0.001-0.003,0.001-0.004
		c3.702,5.112,9.426,7.827,14.19,11.655c1.592,1.279,2.823,3.098,4.786,3.937h2.255c0.114-1.961,1.225-3.848,3.332-4.455
		c-0.002-0.069-0.008-0.138-0.009-0.207c-0.045-2.726,2.308-5,5-5c2.423,0,3.97,1.573,4.821,3.671
		c0.147,0.361,0.296,0.72,0.445,1.079c1.026,0.804,1.728,2.051,1.734,3.75c0.001,0.334,0.003,0.672,0.021,1.008
		c0.036-0.097,0.303,1.173,0.3,1.163c0.258,1.174,0.12,2.353-0.328,3.38c-0.182,2.472-2.571,4.449-4.994,4.449
		c-2.323,0-4.048-1.527-4.703-3.561c-0.255,0.036-0.518,0.061-0.797,0.061c-2.642,0-4.199-1.679-4.677-3.66
		c-0.664,0.032-1.329,0.064-1.993,0.096c-5.529,8.349-11.836,16.077-18.919,23.138c-0.984,0.981-1.796,1.991-2.18,3.138
		c-2.461,7.366-4.768,14.783-7.126,22.184c8.229,0.421,16.458,0.843,24.687,1.264C206.168,235.498,197.66,237.077,189.054,237.189z
		 M236.506,226.502c-0.621,1.724-2.121,3.093-4.506,3.093c-0.317,0-0.608-0.038-0.894-0.083c-0.729,0.162-1.544,0.153-2.436-0.095
		c-8.106-2.259-16.29-2.788-24.671-2.821c-2.695-0.011-4.259-1.765-4.702-3.8h-3.368c-0.003-0.119-0.006-0.238-0.009-0.357h3.309
		c-0.416-2.753,1.172-5.857,4.769-5.843c9.12,0.036,18.168,0.681,26.992,3.093c0.001,0,0.001,0,0.002,0
		c0.62-1.724,2.12-3.093,4.506-3.093C241.592,216.595,241.926,225.516,236.506,226.502z"/>
	<path fill="#FDFDFD" d="M73.25,138.344c2.758,0.204,5.53,0.25,8.297,0.365c-2.636-3.003-5.274-6.016-7.965-9.005
		c-1.627-1.808-3.281-3.612-4.969-5.388c-1.909,4.393-5.081,8.586-8.488,12.413C64.481,137.418,68.852,138.019,73.25,138.344z"/>
	<path fill="#FDFDFD" d="M235.694,93.768c0.504,0.536,1.016,0.435,1.53,0.125c-0.761-0.914-1.521-1.828-2.26-2.762
		c-0.541-0.684-0.868-1.458-1.022-2.254c-0.397,1.386-1.302,2.559-2.668,3.045c1.784,0.873,3.555,1.771,5.313,2.692
		C236.275,94.415,235.976,94.142,235.694,93.768z"/>
	<path fill="#FDFDFD" d="M110.527,52.28c-0.004-0.001-0.008-0.002-0.012-0.003c-0.028,0.006-0.055,0.015-0.083,0.021l-14.785,10.78
		c-0.023,0.046-0.047,0.092-0.069,0.139L110.527,52.28z"/>
	<path fill="#FDFDFD" d="M92.072,70.825c0.583-0.802,1.495-1.528,1.697-2.417c0.435-1.908,1.047-3.628,1.808-5.191l-13.368,9.78
		C85.517,72.361,88.301,69.351,92.072,70.825z"/>
	<path fill="#B7A380" d="M142.008,115.097c-2.391,5.952-7.875,6.263-13.004,6.862c-5.212,0.608-10.407-1.618-15.678-0.426
		c-0.744-0.17-1.486-0.338-2.229-0.506c-1.408-7.692-0.847-15.474-1.088-23.221c-0.166-5.321-2.798-9.706-5.793-13.89
		c-0.234-4.905-0.047-9.847-1.255-14.669c2.788,1.367,5.58,3.909,8.347-0.033c4.903,0.006,9.805,0.012,14.708,0.017
		c4.247,13.82,8.487,27.642,12.75,41.457C139.329,112.514,139.411,114.746,142.008,115.097z"/>
	<path fill="#B7A380" d="M167.977,98.175c7.189,0.549,13.615,3.722,20.211,6.161c2.98,1.102,6.371,1.361,8.931,3.556
		c-1.422,1.616-2.893,3.192-4.25,4.86c-1.318,1.62-4.185,2.688-3.523,5.04c0.76,2.703,3.958,0.398,5.736,1.749
		c-2.286,1.76-4.951,1.571-7.583,1.569c-2.811-0.002-5.274,0.353-3.904,4.227c0.736,2.08-0.325,2.752-2.183,2.757
		c-1.34,0.004-2.267,0.458-2.359,1.948l-0.083,0.097c-3.741-1.018-5.28,2.972-5.067,4.226c0.35,2.067,3.439,2.145,5.523,1.37
		c2.119-0.788,4.254-0.421,6.354-0.739c0.756-0.115-0.723-2.21,1.126-1.755c0.963,0.237,2.348,0.348,2.235,2.406
		c-3.841,0.484-7.692,1.055-11.563,1.411c-1.431,0.132-2.302,0.27-1.613,1.948l0.091,0.257c-0.682-0.052-1.364-0.103-2.046-0.155
		c-2.116-1.446-4.647-1.192-6.991-1.705c-0.651,0.009-1.301,0.019-1.951,0.028c-1.043-0.014-2.086-0.028-3.129-0.043
		c-0.319-0.09-0.632-0.071-0.938,0.057c0,0-0.329-0.249-0.327-0.25c-0.49-1.431-1.868-0.392-2.67-0.958
		c-0.079-0.361-0.157-0.721-0.235-1.082c-1.926-2.01-3.852-4.021-5.778-6.031c-3.144-4.622-5.547-9.608-7.308-14.908
		c1.089-0.367,1.882-1.054,2.319-2.129c3.05-2.038,4.551-5.429,6.988-8.002C158.012,100.602,163.182,99.834,167.977,98.175z"/>
	<path fill="#E9E9E9" d="M157.005,240.108c-24.365-1.959-49.167-0.532-72.814-8.143c-9.49-3.055-18.82-6.223-28.823-6.883
		c-1.046-0.069-2.209-0.268-2.073-1.552c0.166-1.566,1.61-1.382,2.749-1.424c9.814-0.359,19.581,0.077,29.191,2.22
		c12.63,2.816,25.377,4.276,38.322,4.902c16.178,0.781,32.31,2.512,48.466,3.793c1.652,0.131,3.326-0.009,4.99-0.022
		c0.382,1.605-0.4,2.863-1.219,4.11c-4.089,1.559-8.359,0.868-12.559,0.968C160.923,238.133,158.649,238.098,157.005,240.108z"/>
	<path fill="#E9C63A" d="M175.793,237.109c0.819-1.247,1.601-2.506,1.219-4.11c4.663-5.533,9.678-11.002,13.609-16.855
		c4.73-7.042,7.917-15.708,3.559-24.751c-2.733-5.672-5.042-11.581-8.18-17.015c-1.881-3.258-0.611-4.298,1.96-5.399
		c4.017,7.964,8.024,15.933,12.056,23.89c0.836,1.651,2.71,3.014,1.128,5.248c-0.226,0.32,0.109,1.487,0.492,1.696
		c0.805,0.438,1.543-0.134,2.094-0.826c2.68-3.365,5.621-6.559,7.958-10.147c1.553-2.385,1.009-4.929-1.641-6.771
		c-6.648-4.622-13.223-9.348-19.828-14.032c-0.612-3.995,1.649-3.022,3.818-2.208c2.01-0.003,2.827,2.492,4.907,2.343l-0.011-0.02
		c3.701,5.123,9.433,7.838,14.203,11.67c1.592,1.279,2.823,3.098,4.787,3.938c-1.033,0.859-0.193,1.289,0.407,1.773
		c-5.529,8.349-11.836,16.077-18.919,23.138c-0.984,0.981-1.796,1.991-2.18,3.138c-2.461,7.366-4.768,14.783-7.126,22.185
		c-0.35,1.066-0.701,2.131-1.051,3.196c-1.832,3.909-3.311,7.97-4.092,12.194c-0.557,3.009-2.585,4.769-4.905,5.558
		c-4.527,1.539-9.296,2.367-13.968,3.474c-0.953,0.226-2.24,0.645-2.694-0.38c-0.643-1.449,1.729-1.229,1.802-2.5
		c-2.072-1.521-4.39,1.032-6.925-0.551c1.143-1.292,2.217-2.506,3.288-3.721c0.245-0.224,0.493-0.447,0.741-0.671
		c3.553-0.218,7.106-0.437,10.66-0.655c8.861,0.408,8.861,0.408,10.372-7.808c1.722-5.53,3.445-11.061,5.163-16.592
		c0.355-0.396,0.608-0.822,0.015-1.186c-0.074-0.046-0.435,0.376-0.664,0.581c-5.712,4.692-6.454,11.439-7.472,18.072
		c-2.711,0.95-4.797,0.901-4.56-2.856C175.807,239.134,175.8,238.122,175.793,237.109z"/>
	<path fill="#BCAA89" d="M175.964,139.007c-0.689-1.678,0.183-1.817,1.613-1.948c3.871-0.356,7.722-0.927,11.563-1.411
		c0.112-2.059-1.272-2.169-2.235-2.406c-1.849-0.455-0.369,1.641-1.126,1.755c-2.1,0.318-4.236-0.049-6.354,0.739
		c-2.084,0.775-5.173,0.697-5.523-1.37c-0.213-1.255,1.326-5.244,5.067-4.227c0.362,0.239,0.722,0.482,1.096,0.701
		c0.014,0.008,0.17-0.228,0.259-0.351c-0.424-0.149-0.849-0.298-1.273-0.447c0.092-1.491,1.019-1.944,2.359-1.948
		c1.858-0.006,2.919-0.677,2.183-2.757c-1.37-3.873,1.093-4.229,3.904-4.227c2.633,0.002,5.298,0.192,7.583-1.569
		c-1.778-1.351-4.975,0.954-5.736-1.749c-0.662-2.352,2.206-3.421,3.523-5.04c1.357-1.668,2.828-3.243,4.25-4.86
		c4.199,1.177,8.332,2.507,11.932,5.088c-0.833,3.182-4.145,3.891-6.017,6.036c-0.418,0.218-1.613,0.569-0.76,0.879
		c1.43,0.519,3.161,0.208,4.765,0.246c-0.24,2.841,0.307,5.32,3.22,6.596c1.694,0.742,1.795,1.945,0.74,3.12
		c-1.372,1.528-1.893-0.407-2.636-0.965c-1.05-0.789-1.896-1.844-2.868-2.743c-1.803-1.669-3.386-1.009-4.604,0.692
		c-1.588,2.218,0.383,2.939,1.856,3.543c1.339,0.549,2.837,0.712,4.287,1.051c-0.579,1.429-2.534-0.168-3.101,1.371
		c1.314,1.478,4.629,0.95,4.074,4.162c-1.006,0.008-2.011,0.016-3.017,0.025c-2.97-3.902-5.804-3.666-7.884,0.657
		c-2.342,0.49-4.685,0.98-7.027,1.469c-0.827,0.356-1.654,0.712-2.478,1.067c-0.898-0.683-1.839-0.742-2.82-0.183
		C181.973,138.517,178.901,139.363,175.964,139.007z M198.967,120.053c-0.873,0.647-2.237,0.707-2.579,2.274
		c1.649,0.049,2.505-0.624,2.652-2.201c0.065-0.157,0.13-0.314,0.196-0.471C199.145,119.787,199.056,119.92,198.967,120.053z"/>
	<path fill="#E9E9E9" d="M194.038,165.827c-2.169-0.814-4.43-1.787-3.819,2.208c-0.75,0.073-1.5,0.147-2.249,0.22
		c-0.826-0.559-0.978-1.398-0.96-2.305c0.424-0.148,1.203-0.28,1.212-0.452c0.04-0.765-0.605-1.028-1.259-1.19
		c-1.206-4.03,1.677-5.484,4.446-6.91c16.333-8.412,33.778-11.202,51.969-10.261c2.788,0.144,5.594-0.095,8.387-0.002
		c1.532,0.051,3.384-0.682,4.392,1.159c-18.906,5.913-38.614,8.09-57.726,12.942C196.341,161.768,192.405,161.375,194.038,165.827z"
		/>
	<path fill="#D2C9B7" d="M232.147,122.915c0.827-0.113,0.978-1.516,2.411-0.751c8.096,4.319,16.834,7.078,25.453,10.116
		c0.433,0.153,0.764,0.599,1.142,0.908c0.761,1.331,3.549,1.281,2.863,3.371c-0.588,1.791-2.732,1.476-4.312,1.695
		c-1.639,0.228-3.306,0.507-4.945,0.434c-11.581-0.521-23.159-1.127-34.737-1.706c-1.538-3.976-0.898-5.539,3.782-4.012
		c2,0.653,4.472,2.428,6.784,0.104c-2.008-2.173-5.016-1.449-7.056-2.632C225.339,126.328,230.053,126.211,232.147,122.915z"/>
	<path fill="#BCAA89" d="M147,112.088c-0.437,1.075-1.23,1.762-2.319,2.129c-1.482-1.499-1.874,0.307-2.673,0.88
		c-2.597-0.351-2.679-2.582-3.243-4.408c-4.263-13.815-8.503-27.637-12.75-41.457c1.904-0.719,4.209,0.691,5.909-1.113
		c0.344-0.012,0.688-0.025,1.032-0.037c0.355,0.016,0.709,0.033,1.063,0.049c2.13,7.25,4.252,14.502,6.392,21.749
		C142.6,97.285,144.804,104.685,147,112.088z"/>
	<path fill="#212120" d="M110.473,52.269c4.649,1.112,9.562,0.165,14.147,1.88c3.183,1.191,6.383,2.282,8.848,5.771
		c-7.626-0.127-14.085,1.868-20.482,4.139c0,0-0.074-0.042-0.074-0.041c-0.273,0.041-0.541,0.101-0.806,0.18
		c-5.71-3.192-6.52-2.977-10.221,2.721c-1.676,2.341-5.481,2.089-6.45,5.291c-0.886,1.186-1.926,1.87-3.428,1.055
		c-2.153-0.871-0.863-1.65,0.065-2.44c0.583-0.802,1.495-1.528,1.697-2.417c2.07-9.076,7.913-14.153,16.769-16.137L110.473,52.269z"
		/>
	<path fill="#C5B69B" d="M232.147,122.915c-2.093,3.296-6.808,3.414-8.616,7.527c2.041,1.183,5.048,0.459,7.056,2.632
		c-2.312,2.324-4.784,0.549-6.784-0.104c-4.679-1.528-5.32,0.035-3.782,4.012c-4.004-0.004-8.008-0.008-12.012-0.013
		c0.555-3.212-2.761-2.684-4.074-4.162c0.567-1.539,2.522,0.057,3.101-1.371c-1.45-0.339-2.948-0.502-4.287-1.051
		c-1.473-0.604-3.443-1.325-1.856-3.543c1.218-1.701,2.8-2.361,4.604-0.692c0.972,0.9,1.818,1.954,2.868,2.743
		c0.742,0.558,1.264,2.493,2.636,0.965c1.055-1.175,0.954-2.378-0.74-3.12c-2.913-1.276-3.46-3.755-3.221-6.596
		c3.653-0.006,7.307-0.011,10.961-0.016c3.47,0.563,6.94,1.135,10.479,0.86C230.048,120.97,231.625,120.939,232.147,122.915z"/>
	<path fill="#C1B092" d="M147,112.088c-2.196-7.403-4.4-14.803-6.587-22.209c-2.14-7.247-4.262-14.499-6.393-21.749
		c1.655-0.01,3.311-0.02,4.966-0.03c0.436,0.365,0.871,0.731,1.307,1.096c1.855,5.296,5.373,9.716,7.762,14.732
		c0.314,0.388,0.629,0.776,0.943,1.163l0.005,0.008c-1.859,7.253,0.779,13.326,4.985,18.988
		C151.551,106.659,150.05,110.05,147,112.088z"/>
	<path fill="#FAFAF8" d="M187.97,168.255c0.749-0.074,1.499-0.147,2.249-0.22c6.605,4.684,13.181,9.41,19.829,14.033
		c2.65,1.842,3.194,4.386,1.641,6.771c-2.337,3.588-5.278,6.782-7.958,10.147c-0.551,0.691-1.289,1.264-2.094,0.826
		c-0.383-0.209-0.719-1.376-0.492-1.696c1.581-2.233-0.292-3.597-1.128-5.248c-4.032-7.957-8.039-15.925-12.056-23.89
		C187.976,168.738,187.98,168.497,187.97,168.255z"/>
	<path fill="#212120" d="M208.008,136.968c4.004,0.004,8.008,0.008,12.012,0.013c11.579,0.579,23.156,1.185,34.737,1.706
		c1.64,0.074,3.306-0.206,4.945-0.434c1.579-0.219,3.724,0.096,4.312-1.695c0.686-2.089-2.103-2.04-2.863-3.371
		c6.038,0.691,11.487,3.155,16.933,5.626c-0.493,3.082-2.785,3.247-5.203,3.21c-1.834-1.893-4.465-1.323-6.518-1.437
		c-7.773-0.434-15.626-1.641-23.361,0.507c-0.334,0.001-0.668,0.001-1.002,0.002c-1.56-1.44-3.163-1.457-4.804-0.141
		c-9.129,0.064-18.259,0.129-27.388,0.193c-6.577-0.665-13.263-0.276-19.729-2.029c2.342-0.49,4.685-0.979,7.027-1.47
		c2.628-0.219,5.256-0.438,7.884-0.656C205.997,136.985,207.003,136.977,208.008,136.968z"/>
	<path fill="#080807" d="M209.809,141.148c9.129-0.064,18.259-0.129,27.387-0.193c1.601,0.047,3.203,0.094,4.805,0.14
		c0.334-0.001,0.668-0.001,1.002-0.002c9.971-0.046,19.892,1.504,29.879,0.93c2.417,0.037,4.71-0.127,5.203-3.21
		c3.382,1.295,7.113,1.86,10.482,4.787c-6.553,2.005-12.564,0.823-18.517,0.783c-1.083-0.319-2.237-1.052-3.004,0.507
		c-18.917-1.856-37.897,0.309-56.824-0.901c-0.765-0.049-1.781,0.311-2.064-0.767C207.815,141.918,209.708,142.21,209.809,141.148z"
		/>
	<path fill="#C5B69B" d="M153.988,104.086c-4.206-5.661-6.844-11.734-4.985-18.988c4.11,5.598,9.968,8.763,16.135,11.44
		c1.037,0.45,2.207,0.53,2.838,1.637C163.182,99.834,158.012,100.602,153.988,104.086z"/>
	<path fill="#C1B092" d="M228.479,120.985c-3.539,0.275-7.008-0.297-10.479-0.86c-4.847-2.282-10.002-0.403-14.966-1.107
		c1.872-2.145,5.184-2.854,6.017-6.036C215.911,114.719,222.383,117.394,228.479,120.985z"/>
	<path fill="#E9C63A" d="M95.437,72.211c0.968-3.204,4.773-2.951,6.449-5.292c1.039,0.462,1.111,1.371,1.076,2.329
		c1.208,4.822,1.021,9.764,1.255,14.669c-3.166,0.626-3.121-2.789-4.917-3.884c-0.185-0.494-0.367-0.987-0.549-1.48
		c-0.152-0.307-0.202-0.629-0.147-0.97C99.142,74.852,98.408,72.871,95.437,72.211z"/>
	<path fill="#FAFAF8" d="M175.793,237.109c0.007,1.012,0.014,2.025,0.022,3.037c-1,1.325-1.28,3.575-3.795,2.953
		c-5.232,0.141-10.149-1.297-15.015-2.992c1.645-2.01,3.918-1.975,6.229-2.03C167.434,237.978,171.703,238.668,175.793,237.109z"/>
	<path fill="#E9E9E9" d="M172.019,243.099c2.515,0.622,2.795-1.628,3.795-2.953c-0.237,3.758,1.849,3.806,4.562,2.857
		c0.986-0.291,1.971-0.583,2.956-0.875c-1.51,8.216-1.51,8.216-10.372,7.808C176.164,247.173,176.724,244.774,172.019,243.099z"/>
	<path fill="#BCAA89" d="M92.072,70.825c-0.928,0.789-2.218,1.569-0.065,2.44c-0.656,1.17-1.313,2.339-1.969,3.509
		c-1.87-0.359-3.53,2.247-5.506,0.39c-1.367-2.005-4.111-0.713-5.63-2.353c0.31-0.78,0.935-0.842,1.642-0.72
		c0.556-0.365,1.111-0.729,1.665-1.094C85.517,72.361,88.301,69.351,92.072,70.825z"/>
	<path fill="#E9E9E9" d="M189.054,237.189c0.35-1.065,0.701-2.13,1.051-3.196c8.229,0.42,16.458,0.842,24.687,1.263
		C206.168,235.498,197.66,237.077,189.054,237.189z"/>
	<path fill="#D2C9B7" d="M205.104,168.002c-0.114-0.58-0.113-1.19,0.004-1.816c-1.085-0.007-2.169-0.011-3.254-0.016
		c-1.464-0.006-2.606,0.342-2.903,1.979C200.987,167.917,203.044,167.941,205.104,168.002z"/>
	<path fill="#626262" d="M78.903,74.811c1.519,1.64,4.263,0.348,5.63,2.353c-0.409,0.235-0.819,0.47-1.227,0.704
		c-1.167-0.804-2.068-0.798-2.438,0.807c-2.405,0.466-4.81,0.932-7.548,1.462C73.741,76.458,76.379,75.695,78.903,74.811z"/>
	<path fill="#787878" d="M162.301,250.591c-0.248,0.223-0.497,0.447-0.741,0.671c-10.279,0-20.562,0-30.845,0
		C141.247,250.356,151.773,249.507,162.301,250.591z"/>
	<path fill="#787878" d="M199.231,222.438h-3.309c0.003,0.119,0.006,0.238,0.009,0.357h3.368
		C199.273,222.677,199.249,222.558,199.231,222.438z"/>
	<path fill="#B7A380" d="M90.038,76.773c0.656-1.17,1.312-2.339,1.969-3.509c1.502,0.815,2.542,0.131,3.428-1.055
		c2.973,0.662,3.707,2.642,3.168,5.373C95.954,75.143,92.988,76.046,90.038,76.773z"/>
	<line fill="#787878" x1="110.473" y1="52.269" x2="110.538" y2="52.271"/>
	<path fill="#C1B092" d="M130.055,65.256c2.683-0.012,5.365-0.024,8.048-0.036c0.348,0.609,0.696,1.217,1.043,1.826
		c0,0-0.371,0.082-0.371,0.082c-1.955,0.223-4.116-0.811-5.818,0.953c-0.344,0.012-0.688,0.025-1.031,0.037
		c-0.63-0.063-1.259-0.125-1.889-0.188C130.043,67.039,130.049,66.148,130.055,65.256z"/>
	<path fill="#FCFCFC" d="M151.989,129.126c1.926,2.01,3.852,4.02,5.778,6.031C153.287,135.593,151.742,133.218,151.989,129.126z"/>
	<path fill="#D2C9B7" d="M140.664,67.128c-0.512-0.004-1.019-0.02-1.518-0.081c0,0-0.371,0.082-0.371,0.082
		c0.071,0.324,0.141,0.647,0.212,0.971c0.436,0.365,0.871,0.731,1.307,1.096c0.519-0.064,1.048-0.077,1.589-0.076
		C141.258,68.533,140.862,67.85,140.664,67.128z"/>
	<path fill="#FAFAF8" d="M272.873,83.072c-0.137-0.822-0.264-1.646-0.373-2.476c-0.004-0.034-0.001-0.064-0.004-0.098
		c-1.262,0.043-2.557,2.614-3.812,1.334C269.906,83.262,271.398,83.14,272.873,83.072z"/>
	<path fill="#FCFCFC" d="M122.05,144.022c1.153,0.764,2.405,1.681,1.563,3.186c-0.78,1.394-2.302,0.9-3.696,0.673
		c0.437-1.416,2.379-1.978,2.005-3.733L122.05,144.022z"/>
	<path fill="#D2C9B7" d="M111.097,121.027c0.742,0.168,1.485,0.336,2.229,0.506c-0.175,1.448-0.352,2.893-0.676,5.55
		C111.955,124.374,111.526,122.7,111.097,121.027z"/>
	<path fill="#E9E9E9" d="M48.81,225.37c-1.441,0.967-3,0.762-4.808,0.478C45.616,224.35,47.263,225.628,48.81,225.37z"/>
	<path fill="#B7A380" d="M267.046,144.892c0.767-1.56,1.921-0.827,3.004-0.507C269.296,146.02,268.35,146.515,267.046,144.892z"/>
	<path fill="#FAFAF8" d="M182.891,140.818c0.226,0.436,0.58,0.82,0.6,1.22c0.045,0.876-0.664,1.007-1.281,0.818
		c-0.321-0.098-0.513-0.617-0.763-0.946C181.787,141.653,182.127,141.396,182.891,140.818z"/>
	<path fill="#FAFAF8" d="M174.009,139.109c0.682,0.052,1.364,0.103,2.046,0.155c-0.235,0.852,0.316,2.37-1.112,2.278
		C173.634,141.457,174.157,140.008,174.009,139.109z"/>
	<path fill="#BCAA89" d="M80.868,78.675c0.37-1.606,1.27-1.611,2.438-0.807C82.587,78.422,81.933,79.171,80.868,78.675z"/>
	<path fill="#FAFAF8" d="M165.067,137.433c0.65-0.01,1.301-0.019,1.951-0.028c-0.09,0.601-0.104,1.694-0.282,1.722
		C165.545,139.309,165.661,137.992,165.067,137.433z"/>
	<path fill="#FCFCFC" d="M158.003,136.239c0.802,0.566,2.18-0.473,2.67,0.958C159.72,137.05,158.669,137.18,158.003,136.239z"/>
	<path fill="#FAFAF8" d="M193.379,143.247c-0.2,0.184-0.364,0.382-0.573,0.499c-0.063,0.036-0.363-0.152-0.362-0.234
		c0.004-0.275,0.094-0.549,0.152-0.824C192.845,142.866,193.093,143.043,193.379,143.247z"/>
	<path fill="#FAFAF8" d="M184.782,140.003c0.981-0.558,1.922-0.499,2.82,0.183C186.661,140.126,185.721,140.065,184.782,140.003z"/>
	<path fill="#B7A380" d="M98.751,78.553c0.182,0.493,0.364,0.986,0.549,1.48c-0.873-0.106-1.868,0.677-2.618-0.353
		C97.371,79.304,98.061,78.928,98.751,78.553z"/>
	<path fill="#FAFAF8" d="M186.964,164.308c0.654,0.161,1.298,0.425,1.259,1.19c-0.009,0.172-0.788,0.304-1.212,0.452
		C186.995,165.401,186.98,164.855,186.964,164.308z"/>
	<path fill="#FCFCFC" d="M116.379,135.504c-0.243-0.201-0.477-0.394-0.711-0.587c0.19-0.163,0.363-0.358,0.579-0.471
		c0.064-0.033,0.363,0.175,0.356,0.255C116.579,134.966,116.465,135.223,116.379,135.504z"/>
	<path fill="#FAFAF8" d="M197.274,142.461c-0.011,0.102,0.016,0.254-0.04,0.296c-0.089,0.067-0.233,0.06-0.354,0.085
		c0.017-0.17,0.035-0.341,0.052-0.511C197.046,142.374,197.16,142.418,197.274,142.461z"/>
	<path fill="#FCFCFC" d="M126.929,149.008c0.271,0.365,0.541,0.73,0.812,1.095c-1.218,0.345-0.491-0.754-0.804-1.083
		C126.937,149.019,126.929,149.008,126.929,149.008z"/>
	<path fill="#FCFCFC" d="M166.171,165.352c0.034,0.124,0.131,0.325,0.091,0.358c-0.106,0.086-0.271,0.099-0.413,0.141
		c-0.034-0.125-0.131-0.326-0.091-0.359C165.864,165.406,166.029,165.393,166.171,165.352z"/>
	<path fill="#FCFCFC" d="M121.922,144.149c-0.127-0.099-0.254-0.197-0.381-0.296c0.17,0.056,0.34,0.113,0.509,0.169
		C122.05,144.022,121.922,144.149,121.922,144.149z"/>
	<path fill="#C5B69B" d="M148.999,85.091c-0.314-0.387-0.629-0.775-0.943-1.163C148.37,84.315,148.684,84.703,148.999,85.091z"/>
	<path fill="#FCFCFC" d="M161,137.447c0.306-0.128,0.619-0.147,0.938-0.057C161.625,137.409,161.312,137.428,161,137.447z"/>
	<path fill="#A8870B" d="M102.961,69.247c0.035-0.958-0.038-1.867-1.076-2.329c3.701-5.698,4.511-5.914,10.221-2.721
		c0.068,1.255,0.136,2.511,0.204,3.766c-0.334,0.417-0.667,0.834-1.001,1.251C108.541,73.156,105.749,70.615,102.961,69.247z"/>
	<path fill="#FAFAF8" d="M183.332,242.128c-0.985,0.292-1.97,0.583-2.956,0.875c1.017-6.633,1.759-13.38,7.471-18.072
		c0.201,0.22,0.418,0.422,0.653,0.606C186.777,231.067,185.054,236.598,183.332,242.128z"/>
	<path fill="#FAFAF8" d="M187.847,224.931c0.228-0.205,0.589-0.627,0.664-0.581c0.593,0.364,0.34,0.79-0.015,1.186
		C188.265,225.353,188.047,225.151,187.847,224.931z"/>
	<path fill="#C5B69B" d="M204.991,136.993c-2.628,0.219-5.256,0.437-7.884,0.656C199.187,133.327,202.021,133.091,204.991,136.993z"
		/>
	<path fill="#B7A380" d="M203.034,119.017c4.964,0.704,10.119-1.175,14.966,1.107c-3.654,0.006-7.308,0.011-10.961,0.017
		c-1.604-0.038-3.335,0.274-4.765-0.245C201.421,119.586,202.616,119.235,203.034,119.017z"/>
	<path fill="#B7A380" d="M199.04,120.126c-0.148,1.577-1.004,2.249-2.653,2.2c0.343-1.567,1.706-1.627,2.579-2.274L199.04,120.126z"
		/>
	<path fill="#B7A380" d="M179.052,130.043c0.424,0.149,0.849,0.298,1.273,0.447c-0.09,0.122-0.246,0.359-0.259,0.351
		c-0.374-0.219-0.734-0.462-1.096-0.701L179.052,130.043z"/>
	<path fill="#B7A380" d="M198.967,120.053c0.089-0.133,0.179-0.265,0.268-0.398c-0.065,0.157-0.13,0.314-0.195,0.471
		C199.04,120.126,198.967,120.053,198.967,120.053z"/>
	<path fill="#B7A380" d="M138.775,67.129c0.071,0.324,0.141,0.647,0.212,0.971c-1.656,0.01-3.311,0.02-4.966,0.03
		c-0.354-0.016-0.708-0.032-1.063-0.048C134.659,66.318,136.82,67.352,138.775,67.129z"/>
	<path fill="#484848" d="M272.882,142.024c-9.987,0.574-19.908-0.976-29.879-0.93c7.734-2.149,15.588-0.941,23.361-0.507
		C268.418,140.701,271.048,140.13,272.882,142.024z"/>
	<path fill="#484848" d="M242.001,141.095c-1.602-0.047-3.204-0.093-4.805-0.14C238.839,139.638,240.441,139.655,242.001,141.095z"
		/>
	<path fill="#B7A380" d="M133.467,59.92c0,0,2.445,1.326,4.635,5.301l-22.905,1.826l-2.286-3.029
		C112.912,64.017,130.855,57.582,133.467,59.92z"/>
</g>
<path fill="none" stroke="#B7A380" stroke-miterlimit="10" d="M112.65,127.083c0,0,13.725,53.71,71.788,42.612l5.782-1.659"/>
<path fill="#B7A380" d="M130.714,63.217l3.877,8.613l-24.086-0.507c0,0,3.318-3.384,2.406-7.306L130.714,63.217z"/>
<ellipse fill="#212120" cx="106.879" cy="67.223" rx="0" ry="1.035"/>
<ellipse fill="#212120" cx="107.125" cy="66.66" rx="1.875" ry="1.44"/>
<g>
	<path fill="#252949" d="M107.125,65.221c0,0-1.344-1.382-3.142-3.604c-0.907-1.105-1.93-2.419-2.99-3.851
		c-0.522-0.721-1.086-1.451-1.615-2.221c-0.535-0.766-1.079-1.545-1.622-2.324c-0.525-0.792-1.049-1.583-1.566-2.362
		c-0.525-0.773-0.994-1.567-1.473-2.317c-0.943-1.511-1.789-2.946-2.483-4.196c-1.405-2.489-2.195-4.249-2.195-4.249
		s1.346,1.381,3.145,3.603c0.908,1.105,1.931,2.419,2.99,3.852c0.522,0.722,1.088,1.449,1.614,2.222
		c0.535,0.767,1.078,1.545,1.621,2.324c0.524,0.792,1.049,1.583,1.565,2.363c0.522,0.775,0.993,1.567,1.472,2.318
		c0.942,1.512,1.789,2.946,2.483,4.196C106.334,63.462,107.125,65.221,107.125,65.221z"/>
</g>
<line fill="none" stroke="#252949" stroke-width="2" stroke-miterlimit="10" x1="121.917" y1="145.882" x2="100.96" y2="155.555"/>
<line fill="none" stroke="#252949" stroke-width="2" stroke-miterlimit="10" x1="100.96" y1="155.555" x2="72.835" y2="155.609"/>
<g>
	<path fill="#252949" d="M272.882,142.024c0,0,2.333-2.805,6.021-6.825c1.836-2.017,4.01-4.34,6.368-6.798
		c1.186-1.222,2.391-2.506,3.653-3.773c1.257-1.272,2.533-2.564,3.81-3.857c1.293-1.276,2.586-2.552,3.859-3.808
		c1.265-1.264,2.552-2.466,3.774-3.652c2.459-2.358,4.783-4.529,6.802-6.364c4.023-3.684,6.831-6.014,6.831-6.014
		s-2.332,2.806-6.019,6.826c-1.836,2.018-4.009,4.341-6.369,6.797c-1.187,1.222-2.39,2.508-3.654,3.772
		c-1.257,1.272-2.534,2.564-3.811,3.856c-1.293,1.276-2.586,2.552-3.859,3.807c-1.268,1.261-2.552,2.465-3.775,3.651
		c-2.46,2.357-4.784,4.529-6.802,6.364C275.688,139.692,272.882,142.024,272.882,142.024z"/>
</g>
<g>
	<path fill="#252949" d="M184.47,226.612c0,0-1.088,0.334-2.719,0.572c-0.816,0.129-1.768,0.236-2.787,0.307
		c-1.02,0.076-2.107,0.122-3.195,0.121c-1.088,0-2.175-0.042-3.195-0.119c-1.02-0.07-1.971-0.177-2.787-0.306
		c-1.632-0.238-2.719-0.574-2.719-0.574s1.088-0.336,2.719-0.574c0.816-0.129,1.768-0.237,2.787-0.306
		c1.02-0.077,2.107-0.12,3.195-0.119c1.088-0.001,2.175,0.046,3.195,0.121c1.02,0.071,1.971,0.178,2.787,0.307
		C183.383,226.277,184.47,226.612,184.47,226.612z"/>
</g>
<g>
	<path fill="#252949" d="M239.623,134.145c0,0,0.808-0.932,2.255-2.529c1.462-1.583,3.509-3.884,6.039-6.573
		c2.518-2.701,5.487-5.82,8.699-9.132c1.611-1.651,3.276-3.356,4.968-5.09c1.704-1.721,3.436-3.468,5.167-5.216
		c1.748-1.732,3.495-3.463,5.216-5.168c1.713-1.712,3.44-3.356,5.089-4.969c3.311-3.212,6.431-6.181,9.132-8.699
		c2.688-2.53,4.992-4.576,6.575-6.038c1.597-1.447,2.53-2.254,2.53-2.254s-0.807,0.932-2.254,2.53
		c-1.462,1.583-3.507,3.886-6.038,6.575c-2.518,2.701-5.486,5.821-8.699,9.132c-1.613,1.649-3.256,3.376-4.969,5.089
		c-1.705,1.72-3.436,3.468-5.168,5.216c-1.748,1.731-3.496,3.463-5.216,5.167c-1.733,1.692-3.439,3.356-5.09,4.968
		c-3.312,3.211-6.432,6.18-9.132,8.699c-2.689,2.53-4.991,4.577-6.573,6.039C240.555,133.337,239.623,134.145,239.623,134.145z"/>
</g>
<g>
	<path fill="#252949" d="M192.869,112.753c0,0,1.594-2.067,4.172-4.98c1.282-1.464,2.808-3.141,4.473-4.907
		c0.84-0.876,1.686-1.803,2.584-2.706c0.893-0.909,1.8-1.832,2.707-2.756c0.923-0.907,1.846-1.814,2.755-2.707
		c0.901-0.901,1.83-1.745,2.706-2.585c1.765-1.667,3.443-3.192,4.907-4.474c2.914-2.577,4.982-4.17,4.982-4.17
		s-1.592,2.068-4.17,4.982c-1.281,1.464-2.807,3.142-4.474,4.907c-0.84,0.876-1.685,1.804-2.585,2.706
		c-0.893,0.909-1.8,1.832-2.707,2.755c-0.923,0.907-1.847,1.814-2.756,2.707c-0.904,0.898-1.83,1.745-2.706,2.584
		c-1.766,1.666-3.443,3.192-4.907,4.473C194.936,111.159,192.869,112.753,192.869,112.753z"/>
</g>
<line fill="none" stroke="#252949" stroke-width="2" stroke-miterlimit="10" x1="111.097" y1="107.893" x2="97.99" y2="112.981"/>
<line fill="none" stroke="#252949" stroke-width="2" stroke-miterlimit="10" x1="97.99" y1="112.981" x2="76.413" y2="112.981"/>
<line fill="none" stroke="#252949" stroke-width="2" stroke-miterlimit="10" x1="92.072" y1="76.288" x2="81.546" y2="85.098"/>
<g>
	<polygon fill="#252949" points="82.185,85.509 64.455,84.509 82.185,83.509 	"/>
</g>
<g>
	<path fill="#252949" d="M109,62.132c0,0,1.323-1.851,3.498-4.443c1.08-1.303,2.372-2.794,3.787-4.361
		c0.714-0.777,1.431-1.6,2.198-2.399c0.761-0.805,1.535-1.622,2.308-2.439c0.79-0.801,1.58-1.603,2.358-2.392
		c0.77-0.796,1.57-1.539,2.321-2.28c1.516-1.469,2.962-2.81,4.227-3.935c2.517-2.263,4.322-3.647,4.322-3.647
		s-1.322,1.852-3.496,4.445c-1.08,1.304-2.371,2.795-3.787,4.36c-0.715,0.776-1.43,1.601-2.199,2.398
		c-0.762,0.804-1.535,1.621-2.309,2.439c-0.79,0.801-1.581,1.602-2.358,2.391c-0.773,0.794-1.57,1.539-2.322,2.279
		c-1.517,1.468-2.962,2.81-4.228,3.934C110.804,60.746,109,62.132,109,62.132z"/>
</g>
<text transform="matrix(1 0 0 1 40 84.509)" display="none" font-family="'MyriadPro-Regular'" font-size="12">Pico</text>
<text transform="matrix(0.9997 -0.0254 0.0254 0.9997 76.4132 36.2362)" display="none" font-family="'MyriadPro-Regular'" font-size="12">Ojo</text>
<text transform="matrix(1 0 0 1 136.5079 33.4288)" display="none" font-family="'MyriadPro-Regular'" font-size="12">Ceja</text>
<text transform="matrix(1 0 0 1 39.9998 115.0971)" display="none" font-family="'MyriadPro-Regular'" font-size="12">Cuello</text>
<text transform="matrix(1 0 0 1 35.9998 157.6088)" display="none" font-family="'MyriadPro-Regular'" font-size="12">Pecho</text>
<text transform="matrix(1 0 0 1 136.7749 228.05)" display="none" font-family="'MyriadPro-Regular'" font-size="12">Patas</text>
<text transform="matrix(1 0 0 1 225.3337 79.3855)" display="none" font-family="'MyriadPro-Regular'" font-size="12">Ala</text>
<text transform="matrix(1 0 0 1 298.667 72.9972)" display="none" font-family="'MyriadPro-Regular'" font-size="12">Rabadilla</text>
<text transform="matrix(1 0 0 1 316.667 100.9342)" display="none" font-family="'MyriadPro-Regular'" font-size="12">Cola</text>
</svg>
